<svg xmlns="http://www.w3.org/2000/svg" viewBox="0 0 311 51.72"><title>booking-com</title><path d="M126.73,0a4.74,4.74,0,1,0,4.73,4.75V4.74A4.73,4.73,0,0,0,126.74,0ZM201.3,31.51a4.74,4.74,0,1,0,4.7,4.78v-.03A4.74,4.74,0,0,0,201.3,31.51ZM44.44,11.61c-8.61,0-14.86,6.2-14.86,14.75S35.83,41.1,44.44,41.1s14.92-6.2,14.92-14.74S53.09,11.61,44.44,11.61Zm0,22.6c-4.07,0-6.9-3.23-6.9-7.85s2.83-7.85,6.9-7.85,7,3.23,7,7.85S48.6,34.21,44.44,34.21Zm68.42-7.12a7,7,0,0,0-1.13-1.58l-.26-.28.27-.26a11.25,11.25,0,0,0,1.19-1.49l7.6-11.29H111.3L105.6,21a2.23,2.23,0,0,1-2,.72h-1.3V5c0-3.34-2.08-3.8-4.33-3.8H94.16V40.67h8.17V28.84h.77c.93,0,1.56.11,1.85.61L109.47,38c1.26,2.31,2.52,2.7,4.88,2.7h6.26L116,33Zm39.68-15.55a11.14,11.14,0,0,0-8.3,3.41l-.49.5-.18-.68c-.44-1.67-1.91-2.59-4.12-2.59h-3.67V40.66h8.11V27.53a10.62,10.62,0,0,1,.51-3.41,6.67,6.67,0,0,1,6.58-5c2.53,0,3.52,1.34,3.52,4.79V36.33c0,3,1.36,4.33,4.32,4.33h3.86V22.54c.02-7.19-3.49-11-10.14-11Zm-25.7.65H123V40.65h8.08V16.5c.03-2.9-1.36-4.31-4.24-4.31Zm-50.51-.58c-8.62,0-14.87,6.2-14.87,14.75S67.71,41.1,76.33,41.1s14.92-6.2,14.92-14.74S85,11.61,76.33,11.61Zm0,22.6c-4.07,0-6.9-3.23-6.9-7.85s2.83-7.85,6.9-7.85,7,3.23,7,7.85S80.49,34.21,76.33,34.21Zm174.03-22.6c-8.62,0-14.87,6.2-14.87,14.75s6.25,14.74,14.87,14.74,14.92-6.2,14.92-14.74S259,11.61,250.36,11.61Zm0,22.6c-4.07,0-6.9-3.23-6.9-7.85s2.83-7.85,6.9-7.85,6.95,3.23,6.95,7.85-2.8,7.85-6.95,7.85Zm-60.74-22.1a3.53,3.53,0,0,0-3.32,1.74l-.23.43L185.7,14a11,11,0,0,0-7.48-2.48c-7.59,0-12.7,5.7-12.7,14.19s5.29,14.39,12.85,14.39a10,10,0,0,0,6.25-1.82l.63-.47v.79c0,3.8-2.46,5.9-6.92,5.9a16.35,16.35,0,0,1-5.46-1c-1.72-.52-2.73-.09-3.43,1.64l-.65,1.6L167.88,49l.57.31a22.21,22.21,0,0,0,9.92,2.41c6.92,0,15-3.53,15-13.49V12.1ZM179.82,33c-4.44,0-6-3.87-6-7.5,0-1.6.4-6.81,5.59-6.81,2.58,0,6,.74,6,7.08C185.4,31.7,182.36,33,179.82,33ZM22.65,20.45l-1.2-.67,1-.89a9.52,9.52,0,0,0,3.25-7.44c0-6.2-4.81-10.2-12.25-10.2H4A4.14,4.14,0,0,0,0,5.34V40.53H13.66c8.27,0,13.61-4.51,13.61-11.48A9.57,9.57,0,0,0,22.65,20.45Zm-15-10c0-1.82.77-2.69,2.46-2.8h3.38a4.27,4.27,0,0,1,4.64,4.64c0,2.21-1.19,4.8-4.53,4.8h-6V12.57Zm6.61,23.39H7.6V26c0-1.69.65-2.56,2.1-2.77h4.51a4.94,4.94,0,0,1,5.29,5.32c0,3.33-2.03,5.33-5.29,5.33Zm287.29-22.2a11.18,11.18,0,0,0-8.72,4.22l-.59.74-.46-.83c-1.5-2.74-4.09-4.13-7.69-4.13A10.32,10.32,0,0,0,276.61,15l-.77.84-.29-1.1c-.43-1.58-1.84-2.45-4-2.45h-3.41V40.67h7.75V28.13a14.231,14.231,0,0,1,.41-3.32c.74-3,2.78-6.28,6.2-6,2.11.2,3.13,1.83,3.13,5V40.66h7.81V28.13a11.38,11.38,0,0,1,.44-3.43c.63-2.89,2.75-5.85,6.05-5.85,2.39,0,3.27,1.35,3.27,5V36.51c0,2.86,1.28,4.15,4.14,4.15H311V22.54c0-7.23-3.19-10.9-9.45-10.9ZM231,30.8s-3.36,3.55-7.75,3.55c-4,0-8.05-2.46-8.05-7.94,0-4.73,3.14-8,7.63-8,1.45,0,3.11.52,3.37,1.4v.15A2.85,2.85,0,0,0,229,22h4.25V18.31c0-4.9-6.23-6.67-10.42-6.67-9,0-15.47,6.24-15.47,14.83s6.43,14.83,15.3,14.83a16,16,0,0,0,11.92-5.11l.23-.28-3.37-5.58Z" style="fill:#9ba9bb"/></svg>