<?xml version="1.0" encoding="iso-8859-1"?>
<!-- Generator: Adobe Illustrator 19.0.0, SVG Export Plug-In . SVG Version: 6.00 Build 0)  -->
<svg version="1.1" id="Capa_1" xmlns="http://www.w3.org/2000/svg" xmlns:xlink="http://www.w3.org/1999/xlink" x="0px" y="0px"
	 viewBox="0 0 512 512" style="enable-background:new 0 0 512 512;" xml:space="preserve">
<path style="fill:#C7C5CA;" d="M330.543,490.401l-30-61c-2.701-5.101-7.8-8.401-13.5-8.401h-90c-5.7,0-10.8,3.3-13.5,8.401l-30,61
	c-2.1,4.499-2.1,10.199,0.601,14.399c2.999,4.499,7.8,7.2,12.9,7.2h150c5.099,0,9.901-2.701,12.9-7.2
	C332.643,500.6,332.643,494.9,330.543,490.401z"/>
<path style="fill:#ADACB2;" d="M329.942,504.8c-2.999,4.499-7.8,7.2-12.9,7.2h-75v-91h45c5.7,0,10.8,3.3,13.5,8.401l30,61
	C332.643,494.9,332.643,500.6,329.942,504.8z"/>
<path style="fill:#C7C5CA;" d="M410.342,63.701l-316.8,316.8C90.543,383.5,86.943,385,83.043,385s-7.8-1.5-10.8-4.499
	c-5.7-5.7-5.7-15.3,0-21l316.8-316.8c5.999-6,15.298-6,21.299,0C416.342,48.401,416.342,58.001,410.342,63.701z"/>
<path style="fill:#ADACB2;" d="M410.342,63.701l-316.8,316.8C90.543,383.5,86.943,385,83.043,385s-7.8-1.5-10.8-4.499L410.342,42.7
	C416.342,48.401,416.342,58.001,410.342,63.701z"/>
<path style="fill:#0088FF;" d="M374.043,89.2c-1.501-1.8-3.001-3.6-4.801-5.4s-3.6-3.3-5.4-4.801
	c-49.799-46.5-119.7-58.799-180.601-37.798c-10.199,2.999-19.799,7.5-29.399,12.9c-14.099,7.8-27.299,17.699-39.3,29.7
	c-12.001,11.999-21.599,24.901-29.399,39c-5.4,9.3-9.901,19.2-13.2,29.399c-6.601,18.9-9.901,39.001-9.901,58.801
	c0,43.801,15.601,87.599,47.701,121.8c1.5,1.8,2.999,3.6,4.799,5.4s3.6,3.3,5.4,4.801c34.501,32.098,78.3,47.999,122.1,47.999
	c19.799,0,39.6-3.3,58.801-9.901c9.899-3.3,19.799-7.8,29.099-13.5c14.101-7.5,27.301-17.399,39.3-29.399
	c12.001-11.999,21.899-25.199,29.399-39.3c5.7-9.3,10.201-19.2,13.2-29.099C433.142,208.9,420.543,138.999,374.043,89.2z"/>
<path style="fill:#4B5BE4;" d="M411.842,269.801c-2.999,9.899-7.5,19.799-13.2,29.099c-7.5,14.101-17.399,27.301-29.399,39.3
	c-11.999,12.001-25.199,21.899-39.3,29.399c-9.3,5.7-19.2,10.201-29.099,13.5c-19.2,6.601-39.001,9.901-58.801,9.901
	c-43.801,0-87.599-15.901-122.1-47.999c-1.8-1.501-3.6-3.001-5.4-4.801L369.242,83.8c1.8,1.8,3.3,3.6,4.801,5.4
	C420.543,138.999,433.142,208.9,411.842,269.801z"/>
<path style="fill:#00F7FF;" d="M347.943,104.801c-58.5-58.2-153.602-58.2-212.1,0c-58.5,58.499-58.5,153.9,0,212.399
	c58.499,58.2,153.6,58.2,212.1,0C406.442,258.701,406.442,163.299,347.943,104.801z"/>
<path style="fill:#00D7DF;" d="M347.943,317.199c-58.5,58.2-153.602,58.2-212.1,0l212.1-212.399
	C406.442,163.299,406.442,258.701,347.943,317.199z"/>
<path style="fill:#0088FF;" d="M364.143,222.1c8.399-14.7,15.3-29.7,19.799-44.399c10.501-36.301,6.901-67.5-9.899-88.5
	c-1.501-1.8-3.001-3.6-4.801-5.4s-3.6-3.3-5.4-4.801c-30.899-24.598-81.599-19.199-132.9,9.6l-47.701-47.399
	c-10.199,2.999-19.799,7.5-29.399,12.9l51.301,51.299c-12.9,9.3-25.501,19.2-37.5,31.501c-12.001,11.999-22.2,24.598-31.201,37.2
	L85.143,122.8c-5.4,9.3-9.901,19.2-13.2,29.399l47.699,47.701c-29.099,51.301-34.199,102.299-9.899,132.9
	c1.5,1.8,2.999,3.6,4.799,5.4s3.6,3.3,5.4,4.801c13.5,10.8,30.601,15.899,50.099,15.899c25.201,0,54.001-9,83.101-25.499
	l47.701,47.699c9.899-3.3,19.799-7.8,29.099-13.5l-50.7-50.698c12.599-9.001,24.901-19.801,36.899-31.802
	c12.001-11.699,22.202-24.3,31.501-37.2l50.999,51c5.7-9.3,10.201-19.2,13.2-29.099L364.143,222.1z M135.843,317.199
	c-18.6-18.6-14.702-55.8,5.7-95.4l44.7,44.7l44.7,44.702C191.643,331.901,154.443,335.799,135.843,317.199z M295.143,264.101
	c-12.301,11.999-24.901,22.2-37.8,31.199l-49.801-49.799L157.743,195.7c9-12.9,19.2-25.8,31.199-37.8
	c12.001-11.999,24.6-22.2,37.5-31.199l49.801,49.799l49.799,49.801C317.043,239.2,306.842,252.1,295.143,264.101z M355.143,169.3
	c-3.001,10.201-7.5,20.4-12.9,30.601l-44.702-44.7l-44.7-44.7c21.901-11.4,43.2-17.701,60.901-17.701c14.099,0,26.1,3.9,34.2,12.001
	C360.843,117.7,363.242,141.099,355.143,169.3z"/>
<path style="fill:#4B5BE4;" d="M411.842,269.801c-2.999,9.899-7.5,19.799-13.2,29.099l-50.999-51
	c-9.3,12.9-19.501,25.501-31.501,37.2c-11.999,12.001-24.3,22.8-36.899,31.802l50.7,50.698c-9.3,5.7-19.2,10.201-29.099,13.5
	l-47.701-47.699c-29.099,16.5-57.9,25.499-83.101,25.499c-19.499,0-36.599-5.099-50.099-15.899c-1.8-1.501-3.6-3.001-5.4-4.801
	l21.301-21c18.6,18.6,55.8,14.702,95.099-5.999l-44.7-44.702l21.299-20.999l49.801,49.799c12.9-9,25.499-19.2,37.8-31.199
	c11.699-12.001,21.899-24.901,30.899-37.8l-49.799-49.801l21.299-21.299l44.702,44.7c5.4-10.201,9.899-20.4,12.9-30.601
	c8.099-28.2,5.7-51.599-7.2-64.499l21.299-21c1.8,1.8,3.3,3.6,4.801,5.4c16.8,21,20.4,52.2,9.899,88.5
	c-4.499,14.7-11.4,29.7-19.799,44.399L411.842,269.801z"/>
<path style="fill:#8A8891;" d="M482.043,211c0,132.299-107.701,240-240,240c-87.299,0-167.999-47.701-210.3-124.2
	c-3.9-7.5-1.199-16.5,6-20.4c7.2-4.2,16.199-1.5,20.4,5.7c36.899,67.2,107.4,108.9,183.9,108.9c115.8,0,210-94.2,210-210
	c0-74.099-39.901-145.333-104.099-182.833c-7.202-4.2-9.6-13.5-5.402-20.7c4.2-7.2,13.2-9.6,20.402-5.4
	C436.442,45.267,482.043,126.099,482.043,211z"/>
<path style="fill:#7A7780;" d="M482.043,211c0,132.299-107.701,240-240,240v-30c115.8,0,210-94.2,210-210
	c0-74.099-39.901-145.333-104.099-182.833c-7.202-4.2-9.6-13.5-5.402-20.7c4.2-7.2,13.2-9.6,20.402-5.4
	C436.442,45.267,482.043,126.099,482.043,211z"/>
<path style="fill:#57555C;" d="M362.043,497c0,8.401-6.599,15-15,15h-210c-8.401,0-15-6.599-15-15s6.599-15,15-15h210
	C355.443,482,362.043,488.599,362.043,497z"/>
<path style="fill:#474747;" d="M362.043,497c0,8.401-6.599,15-15,15h-105v-30h105C355.443,482,362.043,488.599,362.043,497z"/>
<g>
</g>
<g>
</g>
<g>
</g>
<g>
</g>
<g>
</g>
<g>
</g>
<g>
</g>
<g>
</g>
<g>
</g>
<g>
</g>
<g>
</g>
<g>
</g>
<g>
</g>
<g>
</g>
<g>
</g>
</svg>
