<?xml version="1.0" encoding="utf-8"?>
<!-- Generator: Adobe Illustrator 22.0.1, SVG Export Plug-In . SVG Version: 6.00 Build 0)  -->
<svg version="1.1" id="Layer_1" xmlns="http://www.w3.org/2000/svg" xmlns:xlink="http://www.w3.org/1999/xlink" x="0px" y="0px"
	 viewBox="0 0 1853.8 764.9" style="enable-background:new 0 0 1853.8 764.9;" xml:space="preserve">
<style type="text/css">
	.st0{fill:none;stroke:#53C4F4;stroke-width:13.4662;stroke-linecap:round;stroke-linejoin:round;stroke-miterlimit:10;}
	
		.st1{fill-rule:evenodd;clip-rule:evenodd;fill:none;stroke:#53C4F4;stroke-width:13.4662;stroke-linecap:round;stroke-linejoin:round;stroke-miterlimit:10;}
	.st2{fill:#FFFFFF;}
</style>
<g>
	<polyline class="st0" points="348.9,618.1 348.9,589.8 348.9,561.9 348.9,165.4 348.9,137.6 348.9,108 	"/>
</g>
<g>
	<polyline class="st0" points="380.7,649.5 380.7,620.2 380.7,592 380.7,564.5 380.7,162.9 380.7,135.4 380.7,106 	"/>
</g>
<g>
	<polyline class="st0" points="415,618 415,589.4 415,561.5 415,165.8 415,137.9 415,108.2 	"/>
</g>
<path class="st1" d="M321.9,561.9C226.2,546.7,153,463.7,153,363.7s73.2-183,168.9-198.3"/>
<path class="st1" d="M321.9,589.8c-111-15.5-196.5-110.8-196.5-226.1s85.5-210.6,196.5-226.1"/>
<path class="st1" d="M321.9,618.1C195.3,602.2,97.3,494.1,97.3,363.1S195.3,124,321.9,108"/>
<g>
	<path class="st2" d="M617.5,403.6v-18.1h83.9V400c0,63-38.9,104.8-98.8,104.8c-61.8,0-110.4-48.6-110.4-126.9
		c0-78.3,49-126.9,110-126.9c48.6,0,82.3,28.1,92.8,70.7h-20.5c-10.8-31.7-34.9-51.4-72.3-51.4c-51.4,0-89.1,41-89.1,107.6
		c0,66.7,37.3,108,89.5,108c49,0,77.1-30.5,79.1-82.3H617.5z"/>
	<path class="st2" d="M748.4,254.6h20.5v227.7h133.7v18.9H748.4V254.6z"/>
	<path class="st2" d="M1029.5,504.8c-62.6,0-108.8-51.4-108.8-126.9S966.8,251,1029.5,251c63,0,109.2,51.4,109.2,126.9
		S1092.5,504.8,1029.5,504.8z M1029.5,270.3c-52.2,0-87.9,44.2-87.9,107.6c0,63.4,35.7,107.6,87.9,107.6
		c52.6,0,88.3-44.2,88.3-107.6C1117.8,314.5,1082.1,270.3,1029.5,270.3z"/>
	<path class="st2" d="M1349.1,433.3c0,43.4-30.1,67.9-80.3,67.9h-83.1V254.6h75.5c50.6,0,78.7,22.9,78.7,63.8
		c0,32.5-19.3,48.6-40.6,55C1329.8,378.7,1349.1,403.6,1349.1,433.3z M1261.2,365.5c37.7,0,58.6-15.3,58.6-46.2
		c0-30.9-20.9-46.2-58.6-46.2h-55.4v92.4H1261.2z M1205.8,482.7h64.2c38.5,0,58.6-19.7,58.6-49.8c0-30.1-20.1-49.8-58.6-49.8h-64.2
		V482.7z"/>
	<path class="st2" d="M1395.7,254.6h20.5v227.7h133.7v18.9h-154.2V254.6z"/>
	<path class="st2" d="M1750.6,254.6v18.9h-132.9v91.1h120.5v18.9h-120.5v98.8h132.9v18.9h-153V254.6H1750.6z"/>
</g>
<g>
</g>
<g>
</g>
<g>
</g>
<g>
</g>
<g>
</g>
<g>
</g>
<g>
</g>
<g>
</g>
<g>
</g>
<g>
</g>
<g>
</g>
<g>
</g>
<g>
</g>
<g>
</g>
<g>
</g>
</svg>
