<svg viewBox="0 0 444 113" width="444" height="113" xmlns="http://www.w3.org/2000/svg"><g fill="#9BA9BB" fill-rule="evenodd"><path d="M142.21 88.71l5.53-12.83c5.97 4.44 13.9 6.77 21.76 6.77 5.77 0 9.43-2.22 9.43-5.62-.09-9.45-34.67-2.06-34.94-25.75-.09-12.05 10.61-21.31 25.75-21.31 9.01 0 18.03 2.22 24.42 7.3l-5.15 13.1c-5.88-3.75-13.19-6.44-20.16-6.44-4.7 0-7.83 2.25-7.83 5.11.09 9.26 34.94 4.2 35.3 26.84 0 12.3-10.44 20.93-25.4 20.93-10.97 0-21.05-2.57-28.7-8.1zm212.1-17.47a15.94 15.94 0 1 1 0-15.7l15.25-8.48a33.46 33.46 0 1 0 0 32.64l-15.25-8.46zM203.97 2.22h19.1v93.35h-19.1V2.22zm173.07 0v93.35h19.1V67.6l22.64 27.97h24.42l-28.8-33.25 26.65-31.02h-23.36l-21.58 25.75V2.22h-19.07zM279.76 71.42a17.6 17.6 0 0 1-14.87 7.92 15.95 15.95 0 0 1 0-31.9c6.42 0 12.12 3.55 14.87 8.2v15.78zm0-40.12v7.57c-3.1-5.26-10.87-8.92-18.98-8.92-16.76 0-29.97 14.8-29.97 33.34 0 18.56 13.21 33.52 29.97 33.52 8.1 0 15.88-3.64 18.98-8.9v7.55h19.1V31.3h-19.1zM24.24 71.33a11.77 11.77 0 1 1-11.76-11.77h11.76v11.77zm5.89 0a11.77 11.77 0 1 1 23.53 0v29.41a11.77 11.77 0 0 1-23.53 0V71.33zM41.9 24.06A11.77 11.77 0 1 1 53.68 12.3v11.76H41.91zm0 6a11.77 11.77 0 1 1 0 23.53H12.4a11.77 11.77 0 1 1 0-23.53H41.9zm47.16 11.76a11.77 11.77 0 1 1 11.76 11.77H89.07V41.82zm-5.89 0a11.77 11.77 0 1 1-23.53 0V12.3a11.77 11.77 0 1 1 23.53 0v29.52zM71.42 88.98a11.77 11.77 0 1 1-11.77 11.76V88.98h11.77zm0-5.89a11.77 11.77 0 1 1 0-23.53h29.52a11.77 11.77 0 0 1 0 23.53H71.42z"/></g></svg>
