<svg width="1440" height="739" viewBox="0 0 1440 739" fill="none" xmlns="http://www.w3.org/2000/svg">
<g id="Frame 1">
<g id="Group 8">
<mask id="mask0" mask-type="alpha" maskUnits="userSpaceOnUse" x="-52" y="0" width="1607" height="739">
<path id="Vector 11" d="M1554.5 0.5H-52V542L1554.5 738.5V0.5Z" fill="#2C353C"/>
</mask>
<g mask="url(#mask0)">
<path id="Vector 13" d="M1554.5 0.5H-52V542L1554.5 738.5V0.5Z" fill="#2C353C"/>
<path id="Vector 12" d="M446.5 388.5L-68.5 146.5L-111.5 622.5L581.5 702L446.5 388.5Z" fill="url(#paint0_linear)"/>
<path id="Vector 14" d="M1118 113.967L1151 111L1127.34 158L1118 113.967Z" fill="#53C4F4"/>
<path id="Vector 15" d="M721 244L628.5 -12L1257 -57L721 244Z" fill="url(#paint1_linear)"/>
<path id="Vector 16" d="M269 162.5L309.5 75L356 139L269 162.5Z" fill="#53C4F4"/>
</g>
</g>
</g>
<defs>
<linearGradient id="paint0_linear" x1="659" y1="-469.5" x2="223.5" y2="614" gradientUnits="userSpaceOnUse">
<stop stop-color="#53C4F4"/>
<stop offset="0.665287" stop-color="#4389A7"/>
<stop offset="1" stop-color="#2C353C"/>
</linearGradient>
<linearGradient id="paint1_linear" x1="913" y1="-1311.5" x2="927.5" y2="346" gradientUnits="userSpaceOnUse">
<stop stop-color="#53C4F4"/>
<stop offset="0.827112" stop-color="#3B6B82"/>
<stop offset="1" stop-color="#2C353C"/>
</linearGradient>
</defs>
</svg>
